<mxfile host="app.diagrams.net" modified="2023-05-26T06:59:15.049Z" agent="Mozilla/5.0 (Windows NT 10.0; Win64; x64) AppleWebKit/537.36 (KHTML, like Gecko) Chrome/113.0.0.0 Safari/537.36" etag="9Q8voLGwlw2IuP1aOJID" version="21.3.4" type="github">
  <diagram name="第 1 页" id="WXZ5FxBREvDLbD_KLT6q">
    <mxGraphModel dx="880" dy="452" grid="1" gridSize="10" guides="1" tooltips="1" connect="1" arrows="1" fold="1" page="1" pageScale="1" pageWidth="827" pageHeight="1169" math="0" shadow="0">
      <root>
        <mxCell id="0" />
        <mxCell id="1" parent="0" />
        <mxCell id="ibF3AnjWmkHCkzIqTZFg-5" value="" style="edgeStyle=orthogonalEdgeStyle;rounded=0;orthogonalLoop=1;jettySize=auto;html=1;" parent="1" source="ibF3AnjWmkHCkzIqTZFg-1" target="ibF3AnjWmkHCkzIqTZFg-4" edge="1">
          <mxGeometry relative="1" as="geometry" />
        </mxCell>
        <mxCell id="ibF3AnjWmkHCkzIqTZFg-1" value="查询短视频列表" style="rounded=1;whiteSpace=wrap;html=1;" parent="1" vertex="1">
          <mxGeometry x="140" y="40" width="120" height="60" as="geometry" />
        </mxCell>
        <mxCell id="ibF3AnjWmkHCkzIqTZFg-12" style="edgeStyle=orthogonalEdgeStyle;rounded=0;orthogonalLoop=1;jettySize=auto;html=1;" parent="1" source="ibF3AnjWmkHCkzIqTZFg-4" target="ibF3AnjWmkHCkzIqTZFg-8" edge="1">
          <mxGeometry relative="1" as="geometry" />
        </mxCell>
        <mxCell id="ibF3AnjWmkHCkzIqTZFg-13" style="edgeStyle=orthogonalEdgeStyle;rounded=0;orthogonalLoop=1;jettySize=auto;html=1;" parent="1" source="ibF3AnjWmkHCkzIqTZFg-4" target="ibF3AnjWmkHCkzIqTZFg-9" edge="1">
          <mxGeometry relative="1" as="geometry" />
        </mxCell>
        <mxCell id="ibF3AnjWmkHCkzIqTZFg-4" value="参数&amp;nbsp;search&amp;nbsp;&lt;br&gt;是否为空" style="rhombus;whiteSpace=wrap;html=1;" parent="1" vertex="1">
          <mxGeometry x="150" y="130" width="100" height="90" as="geometry" />
        </mxCell>
        <mxCell id="ibF3AnjWmkHCkzIqTZFg-17" style="edgeStyle=orthogonalEdgeStyle;rounded=0;orthogonalLoop=1;jettySize=auto;html=1;entryX=0.5;entryY=0;entryDx=0;entryDy=0;" parent="1" source="ibF3AnjWmkHCkzIqTZFg-8" target="ibF3AnjWmkHCkzIqTZFg-14" edge="1">
          <mxGeometry relative="1" as="geometry" />
        </mxCell>
        <mxCell id="ibF3AnjWmkHCkzIqTZFg-8" value="SQL&amp;nbsp;语句走首页-推荐的逻辑" style="rounded=1;whiteSpace=wrap;html=1;" parent="1" vertex="1">
          <mxGeometry x="20" y="270" width="120" height="60" as="geometry" />
        </mxCell>
        <mxCell id="ibF3AnjWmkHCkzIqTZFg-18" style="edgeStyle=orthogonalEdgeStyle;rounded=0;orthogonalLoop=1;jettySize=auto;html=1;entryX=0.5;entryY=0;entryDx=0;entryDy=0;" parent="1" source="ibF3AnjWmkHCkzIqTZFg-9" target="ibF3AnjWmkHCkzIqTZFg-14" edge="1">
          <mxGeometry relative="1" as="geometry" />
        </mxCell>
        <mxCell id="ibF3AnjWmkHCkzIqTZFg-9" value="SQL&amp;nbsp;语句走搜索的逻辑" style="rounded=1;whiteSpace=wrap;html=1;" parent="1" vertex="1">
          <mxGeometry x="260" y="270" width="120" height="60" as="geometry" />
        </mxCell>
        <mxCell id="ibF3AnjWmkHCkzIqTZFg-19" value="" style="edgeStyle=orthogonalEdgeStyle;rounded=0;orthogonalLoop=1;jettySize=auto;html=1;" parent="1" source="ibF3AnjWmkHCkzIqTZFg-14" target="ibF3AnjWmkHCkzIqTZFg-16" edge="1">
          <mxGeometry relative="1" as="geometry" />
        </mxCell>
        <mxCell id="ibF3AnjWmkHCkzIqTZFg-14" value="MySQL&amp;nbsp;中拿到对应的视频列表" style="rounded=1;whiteSpace=wrap;html=1;" parent="1" vertex="1">
          <mxGeometry x="140" y="380" width="120" height="60" as="geometry" />
        </mxCell>
        <mxCell id="ibF3AnjWmkHCkzIqTZFg-21" value="" style="edgeStyle=orthogonalEdgeStyle;rounded=0;orthogonalLoop=1;jettySize=auto;html=1;" parent="1" source="ibF3AnjWmkHCkzIqTZFg-16" target="ibF3AnjWmkHCkzIqTZFg-20" edge="1">
          <mxGeometry relative="1" as="geometry" />
        </mxCell>
        <mxCell id="ibF3AnjWmkHCkzIqTZFg-16" value="遍历每个视频&amp;nbsp;VO&amp;nbsp;对象，判断用户是否关注该博主，是否点赞过视频" style="whiteSpace=wrap;html=1;rounded=1;" parent="1" vertex="1">
          <mxGeometry x="140" y="470" width="120" height="60" as="geometry" />
        </mxCell>
        <mxCell id="ibF3AnjWmkHCkzIqTZFg-20" value="Redis&amp;nbsp;中拿到当前视频被点赞的总数" style="whiteSpace=wrap;html=1;rounded=1;" parent="1" vertex="1">
          <mxGeometry x="140" y="555" width="120" height="60" as="geometry" />
        </mxCell>
        <mxCell id="ibF3AnjWmkHCkzIqTZFg-22" value="是" style="text;html=1;align=center;verticalAlign=middle;resizable=0;points=[];autosize=1;strokeColor=none;fillColor=none;" parent="1" vertex="1">
          <mxGeometry x="90" y="178" width="40" height="30" as="geometry" />
        </mxCell>
        <mxCell id="ibF3AnjWmkHCkzIqTZFg-23" value="否" style="text;html=1;align=center;verticalAlign=middle;resizable=0;points=[];autosize=1;strokeColor=none;fillColor=none;" parent="1" vertex="1">
          <mxGeometry x="270" y="178" width="40" height="30" as="geometry" />
        </mxCell>
        <mxCell id="ibF3AnjWmkHCkzIqTZFg-27" value="" style="edgeStyle=orthogonalEdgeStyle;rounded=0;orthogonalLoop=1;jettySize=auto;html=1;" parent="1" source="ibF3AnjWmkHCkzIqTZFg-24" target="ibF3AnjWmkHCkzIqTZFg-25" edge="1">
          <mxGeometry relative="1" as="geometry" />
        </mxCell>
        <mxCell id="ibF3AnjWmkHCkzIqTZFg-24" value="查询评论列表" style="rounded=1;whiteSpace=wrap;html=1;" parent="1" vertex="1">
          <mxGeometry x="520" y="40" width="120" height="60" as="geometry" />
        </mxCell>
        <mxCell id="ibF3AnjWmkHCkzIqTZFg-28" value="" style="edgeStyle=orthogonalEdgeStyle;rounded=0;orthogonalLoop=1;jettySize=auto;html=1;" parent="1" source="ibF3AnjWmkHCkzIqTZFg-25" target="ibF3AnjWmkHCkzIqTZFg-26" edge="1">
          <mxGeometry relative="1" as="geometry" />
        </mxCell>
        <mxCell id="ibF3AnjWmkHCkzIqTZFg-25" value="MySQL&amp;nbsp;中拿到指定视频的评论列表" style="rounded=1;whiteSpace=wrap;html=1;" parent="1" vertex="1">
          <mxGeometry x="520" y="140" width="120" height="60" as="geometry" />
        </mxCell>
        <mxCell id="ibF3AnjWmkHCkzIqTZFg-26" value="遍历每个评论 VO&amp;nbsp;对象，Redis&amp;nbsp;中拿到对应的点赞数，判断用户是否点赞过该评论" style="whiteSpace=wrap;html=1;rounded=1;" parent="1" vertex="1">
          <mxGeometry x="520" y="245" width="120" height="60" as="geometry" />
        </mxCell>
        <mxCell id="Aljr57ed6nD0tev_MYhq-1" value="" style="edgeStyle=orthogonalEdgeStyle;rounded=0;orthogonalLoop=1;jettySize=auto;html=1;" parent="1" source="ibF3AnjWmkHCkzIqTZFg-29" target="ibF3AnjWmkHCkzIqTZFg-30" edge="1">
          <mxGeometry relative="1" as="geometry" />
        </mxCell>
        <mxCell id="ibF3AnjWmkHCkzIqTZFg-29" value="查询消息列表" style="rounded=1;whiteSpace=wrap;html=1;" parent="1" vertex="1">
          <mxGeometry x="780" y="40" width="120" height="60" as="geometry" />
        </mxCell>
        <mxCell id="Aljr57ed6nD0tev_MYhq-2" value="" style="edgeStyle=orthogonalEdgeStyle;rounded=0;orthogonalLoop=1;jettySize=auto;html=1;" parent="1" source="ibF3AnjWmkHCkzIqTZFg-30" target="ibF3AnjWmkHCkzIqTZFg-31" edge="1">
          <mxGeometry relative="1" as="geometry" />
        </mxCell>
        <mxCell id="ibF3AnjWmkHCkzIqTZFg-30" value="MongoDB&amp;nbsp;中拿到当前用户收到的消息" style="rounded=1;whiteSpace=wrap;html=1;" parent="1" vertex="1">
          <mxGeometry x="780" y="140" width="120" height="60" as="geometry" />
        </mxCell>
        <mxCell id="ibF3AnjWmkHCkzIqTZFg-31" value="遍历每一个消息&amp;nbsp;MO&amp;nbsp;对象" style="rounded=1;whiteSpace=wrap;html=1;" parent="1" vertex="1">
          <mxGeometry x="780" y="245" width="120" height="60" as="geometry" />
        </mxCell>
        <mxCell id="8bdIcVnPFg0Oljo9QeHm-5" value="" style="edgeStyle=orthogonalEdgeStyle;rounded=0;orthogonalLoop=1;jettySize=auto;html=1;" edge="1" parent="1" source="8bdIcVnPFg0Oljo9QeHm-2" target="8bdIcVnPFg0Oljo9QeHm-3">
          <mxGeometry relative="1" as="geometry" />
        </mxCell>
        <mxCell id="8bdIcVnPFg0Oljo9QeHm-2" value="查询点赞视频列表" style="rounded=1;whiteSpace=wrap;html=1;" vertex="1" parent="1">
          <mxGeometry x="140" y="672" width="120" height="60" as="geometry" />
        </mxCell>
        <mxCell id="8bdIcVnPFg0Oljo9QeHm-6" value="" style="edgeStyle=orthogonalEdgeStyle;rounded=0;orthogonalLoop=1;jettySize=auto;html=1;" edge="1" parent="1" source="8bdIcVnPFg0Oljo9QeHm-3" target="8bdIcVnPFg0Oljo9QeHm-4">
          <mxGeometry relative="1" as="geometry" />
        </mxCell>
        <mxCell id="8bdIcVnPFg0Oljo9QeHm-3" value="MySQL&amp;nbsp;中根据当前用户&amp;nbsp;ID&amp;nbsp;拿到点赞视频列表" style="rounded=1;whiteSpace=wrap;html=1;" vertex="1" parent="1">
          <mxGeometry x="140" y="770" width="120" height="60" as="geometry" />
        </mxCell>
        <mxCell id="8bdIcVnPFg0Oljo9QeHm-4" value="返回前端" style="rounded=1;whiteSpace=wrap;html=1;" vertex="1" parent="1">
          <mxGeometry x="140" y="870" width="120" height="60" as="geometry" />
        </mxCell>
      </root>
    </mxGraphModel>
  </diagram>
</mxfile>
